<svg version="1.1" id="Layer_1" xmlns="http://www.w3.org/2000/svg" xmlns:xlink="http://www.w3.org/1999/xlink" x="0px" y="0px"
	 width="100%" viewBox="0 0 1024 464" enable-background="new 0 0 1024 464" xml:space="preserve">
<path fill="#000000" opacity="1.000000" stroke="none" 
	d="
M654.000000,301.902191 
	C641.506409,301.894470 629.508667,302.064972 617.521240,301.789459 
	C612.951965,301.684418 610.633850,303.121826 609.290466,307.641693 
	C605.877869,319.123688 601.928467,330.445312 598.283264,341.859650 
	C597.449280,344.471039 596.376221,346.291443 593.187561,346.261902 
	C582.194519,346.160156 571.199890,346.229431 560.206055,346.190613 
	C559.422546,346.187866 558.640137,345.837585 557.986755,345.680084 
	C556.973694,343.339508 558.176453,341.529602 558.805847,339.706238 
	C579.714600,279.135406 600.688232,218.586884 621.532715,157.993988 
	C622.847412,154.172577 624.592468,152.530075 628.891235,152.374374 
	C642.051636,151.897675 655.206421,152.396729 668.357178,152.092056 
	C672.285034,152.001053 673.850403,154.044601 675.009277,157.412643 
	C693.742615,211.857834 712.552856,266.276581 731.351868,320.699219 
	C733.633972,327.305725 735.978394,333.890808 738.232239,340.506805 
	C738.752075,342.032776 739.809082,343.523163 738.973083,345.333862 
	C737.634460,346.654388 735.879700,346.218597 734.275696,346.225677 
	C724.281250,346.269806 714.283936,346.118195 704.293030,346.313141 
	C700.562622,346.385925 698.588806,345.226898 697.448547,341.491913 
	C693.901550,329.873596 689.891724,318.397003 686.296936,306.792542 
	C685.175903,303.173889 683.303711,301.732574 679.485107,301.834656 
	C671.162048,302.057129 662.828979,301.902924 654.000000,301.902191 
M626.238281,255.575012 
	C625.109497,259.672180 623.091125,263.536591 622.700439,268.149750 
	C639.607727,268.149750 656.199951,268.149750 673.460571,268.149750 
	C665.120178,242.789642 657.003174,218.108795 648.886108,193.427933 
	C648.101440,193.466644 647.316833,193.505356 646.532166,193.544052 
	C639.840942,213.967896 633.149658,234.391739 626.238281,255.575012 
z"/>
<path fill="#000000" opacity="1.000000" stroke="none" 
	d="
M121.030823,346.253906 
	C107.909859,346.201416 108.422531,347.379547 112.603859,335.296570 
	C133.022705,276.291229 153.470413,217.295700 173.737381,158.238205 
	C175.251816,153.825256 177.407608,152.370026 182.002045,152.470657 
	C194.993317,152.755188 207.998978,152.694870 220.991272,152.413834 
	C224.509155,152.337723 226.028854,153.525497 227.109909,156.675278 
	C243.161407,203.442368 259.291229,250.182587 275.421539,296.922607 
	C280.255371,310.929443 285.161530,324.911285 289.997681,338.917358 
	C290.691101,340.925476 291.678680,342.900818 291.500153,344.951416 
	C290.223053,346.598907 288.610992,346.195557 287.185089,346.201447 
	C276.853455,346.244202 266.519012,346.094910 256.191071,346.295105 
	C252.530258,346.366028 250.822296,344.923950 249.770401,341.543640 
	C246.159637,329.940216 242.199677,318.444763 238.645020,306.824921 
	C237.527710,303.172638 235.657791,301.810608 231.865799,301.833130 
	C210.869583,301.957794 189.871307,301.987701 168.875992,301.798859 
	C164.728653,301.761566 163.017670,303.450378 161.859787,307.160522 
	C158.239487,318.760864 154.201187,330.231018 150.599289,341.836761 
	C149.569473,345.154938 147.874100,346.350891 144.521271,346.286285 
	C136.858673,346.138519 129.191116,346.247986 121.030823,346.253906 
M193.714355,209.061371 
	C187.365311,228.597656 181.016266,248.133957 174.469498,268.278687 
	C191.848160,268.278687 208.353958,268.278687 225.878769,268.278687 
	C217.534012,242.962723 209.357773,218.158035 201.181549,193.353348 
	C200.552536,193.440048 199.923523,193.526749 199.294525,193.613449 
	C196.669983,198.171707 195.834457,203.448105 193.714355,209.061371 
z"/>
<path fill="#000000" opacity="1.000000" stroke="none" 
	d="
M793.898010,232.018524 
	C778.687134,205.825974 763.655090,179.952591 748.020996,153.043015 
	C754.257019,152.692719 759.289612,152.275543 764.329102,152.160507 
	C770.824890,152.012253 777.331421,152.257370 783.823303,152.037491 
	C787.605225,151.909393 789.885925,153.268143 791.791565,156.624039 
	C802.403320,175.311401 813.237976,193.872253 824.001160,212.473602 
	C825.085938,214.348221 826.147278,216.239792 827.314575,218.062576 
	C830.110962,222.429184 831.216675,222.471405 833.807922,218.102585 
	C839.586853,208.358871 845.254211,198.549042 851.000916,188.786102 
	C857.423279,177.875305 863.938049,167.018402 870.284668,156.063904 
	C871.697693,153.625061 873.418518,152.680191 876.247986,152.494827 
	C885.743530,151.872772 895.237122,152.177368 904.730164,152.187225 
	C906.802124,152.189377 909.031799,152.005707 911.394531,153.652939 
	C906.902954,161.443268 902.464050,169.192749 897.977417,176.914459 
	C885.507446,198.376038 873.116211,219.884521 860.445251,241.226913 
	C858.151245,245.090942 858.357300,248.009277 860.523804,251.735794 
	C877.605408,281.117065 894.527222,310.591309 911.484070,340.045044 
	C912.383789,341.607941 913.592102,343.057404 913.654724,345.075043 
	C912.325867,346.895874 910.333252,346.195892 908.631287,346.210297 
	C899.633301,346.286377 890.612061,345.859894 881.643494,346.378998 
	C875.679260,346.724213 872.385742,344.700348 869.464539,339.449249 
	C857.803711,318.488190 845.661865,297.794159 833.623413,277.044556 
	C832.520813,275.144104 831.969666,272.215637 829.047729,272.341705 
	C826.494080,272.451874 825.932739,275.096161 824.892944,276.897919 
	C812.402710,298.540131 799.907898,320.180237 787.566956,341.907562 
	C785.779602,345.054291 783.683533,346.400299 780.036133,346.321045 
	C770.541992,346.114807 761.040466,346.258331 751.541931,346.234161 
	C749.895691,346.229950 748.200378,346.423401 746.621460,345.554474 
	C745.536926,343.260864 747.308228,341.765656 748.235413,340.149048 
	C765.143127,310.669128 782.011963,281.166016 799.144653,251.817108 
	C801.602478,247.606735 801.726990,244.345734 798.893127,240.513504 
	C797.022766,237.984161 795.664429,235.076172 793.898010,232.018524 
z"/>
<path fill="#000000" opacity="1.000000" stroke="none" 
	d="
M401.963501,314.144714 
	C408.000885,305.144104 415.083282,297.386108 421.806610,289.343597 
	C424.012451,286.704956 426.531525,286.984314 428.178345,290.133118 
	C430.272064,294.136536 432.544373,298.002655 435.501404,301.429962 
	C444.490082,311.848267 455.999725,316.124146 469.464569,314.396332 
	C483.556580,312.588013 491.534729,302.542358 491.638458,286.355194 
	C491.878784,248.860535 491.801819,211.363846 491.852325,173.867966 
	C491.859497,168.535187 491.978546,163.198975 491.824219,157.870773 
	C491.715485,154.116287 493.019348,152.464233 497.022552,152.534653 
	C507.017883,152.710464 517.020874,152.650635 527.017029,152.470413 
	C530.381226,152.409775 531.304260,153.789551 531.297852,156.919281 
	C531.210205,199.581497 531.326172,242.244644 531.065186,284.905548 
	C531.014526,293.185211 529.731018,301.462372 527.385620,309.520721 
	C522.033997,327.907654 510.669922,340.457550 491.960724,345.414612 
	C468.794891,351.552429 446.051971,350.715149 424.603180,338.983368 
	C414.444458,333.426880 406.530304,325.411865 401.963501,314.144714 
z"/>
<path fill="#000000" opacity="1.000000" stroke="none" 
	d="
M314.053009,235.606918 
	C336.871368,235.596436 359.199249,235.702332 381.524017,235.487320 
	C386.152710,235.442734 387.623047,236.934982 387.433075,241.475342 
	C387.119904,248.960190 387.254395,256.468872 387.379150,263.964478 
	C387.431519,267.109344 386.354645,268.444000 383.065674,268.432587 
	C358.739807,268.348236 334.413483,268.349182 310.087524,268.412689 
	C306.863403,268.421082 305.621307,267.128235 305.667694,263.961182 
	C305.767761,257.131470 305.675903,250.299088 305.678680,243.467789 
	C305.681885,235.649460 305.689484,235.649460 314.053009,235.606918 
z"/>
<path fill="#000000" opacity="1.000000" stroke="none" 
	d="
M199.712692,111.802643 
	C201.965912,103.055321 207.373413,100.757973 215.719421,101.492088 
	C224.796478,102.290504 233.997513,101.656586 243.144135,101.710274 
	C244.558411,101.718567 246.334946,101.334808 247.017487,103.159546 
	C247.620239,104.770912 246.668304,106.029251 245.621826,107.163277 
	C235.361725,118.281464 225.092834,129.391556 214.849030,140.524734 
	C213.466171,142.027664 211.741440,142.276489 209.858749,142.270065 
	C203.705460,142.249054 197.550888,142.330826 191.399048,142.232483 
	C186.584366,142.155518 185.723328,140.834686 187.813431,136.383316 
	C191.628906,128.257294 195.643433,120.224747 199.712692,111.802643 
z"/>
</svg>